<?xml version="1.0" encoding="utf-8"?>
<svg version="1.1" xmlns:xlink="http://www.w3.org/1999/xlink" width="17px" height="8px" xmlns="http://www.w3.org/2000/svg">
  <g transform="matrix(1 0 0 1 -760 -150 )">
    <path d="M 16.575 1.9891891891891897  C 17.053125 1.6108108108108115  17.106250000000003 0.9621621621621628  16.734375 0.4756756756756763  C 16.538224294987646 0.2170737541170094  16.235319894225857 0.06561966768926773  15.914273196823125 0.06561966768926773  C 15.670043288878109 0.06561966768926773  15.433666590704133 0.1534178203551072  15.246875 0.31351351351351414  C 14.131250000000001 1.232432432432433  13.121875 1.8810810810810816  12.1125 2.205405405405406  C 11.103124999999999 2.5837837837837845  9.934375 2.7459459459459468  8.5 2.7459459459459468  C 7.065625000000001 2.7459459459459468  5.896875 2.5837837837837845  4.887499999999999 2.205405405405406  C 3.878125 1.8270270270270277  2.8687500000000004 1.232432432432433  1.7531249999999998 0.31351351351351414  C 1.275 -0.06486486486486424  0.6375 -0.010810810810810196  0.265625 0.4756756756756763  C -0.10625000000000001 0.9621621621621628  -0.053125000000000006 1.6108108108108115  0.42500000000000004 1.9891891891891882  C 1.117270620055827 2.583776688167237  1.8645086201634482 3.108749709667634  2.65625 3.5567567567567573  L 1.7531249999999998 5.124324324324325  C 1.4874999999999998 5.664864864864866  1.646875 6.313513513513514  2.125 6.583783783783784  C 2.65625 6.854054054054055  3.29375 6.691891891891893  3.559375 6.205405405405406  L 4.56875 4.4216216216216235  C 5.502055051451508 4.701630817122585  6.465390939182643 4.864994613664166  7.4375 4.908108108108109  L 7.437499999999998 6.8540540540540515  C 7.437499999999998 7.4511186484657195  7.913197453304781 7.935135135135132  8.499999999999998 7.935135135135132  C 9.086802546695216 7.935135135135132  9.562499999999998 7.4511186484657195  9.562499999999998 6.8540540540540515  L 9.5625 4.90810810810811  C 10.611712749420866 4.856252471946258  11.648734941407803 4.656136353542988  12.64375 4.313513513513514  L 13.706250000000002 6.205405405405406  C 13.894506022665357 6.5310374446103445  14.238076085415754 6.730977455314378  14.609375 6.730977455314378  C 15.188052764404139 6.730977455314378  15.657163780301161 6.253662590172734  15.657163780301161 5.664864864864866  C 15.657163780301161 5.474784689019565  15.607218038528407 5.288160931508597  15.5125 5.124324324324325  L 14.556249999999999 3.4486486486486494  C 15.27754662217624 3.035445550470433  15.954177779314843 2.5462736654668747  16.575 1.9891891891891897  Z " fill-rule="nonzero" fill="#8a8886" stroke="none" transform="matrix(1 0 0 1 760 150 )" />
  </g>
</svg>