<?xml version="1.0" encoding="utf-8"?>
<svg version="1.1" xmlns:xlink="http://www.w3.org/1999/xlink" width="50px" height="50px" xmlns="http://www.w3.org/2000/svg">
  <g transform="matrix(1 0 0 1 -1751 -35 )">
    <path d="M 50 25  C 50 11.250000000000002  38.75000000000001 0  25 0  C 11.250000000000002 0  0 11.250000000000002  0 25  C 0 38.75000000000001  11.250000000000002 50  25 50  C 38.75000000000001 50  50 38.75000000000001  50 25  Z M 16.666666666666668 18.75  C 16.666666666666668 12.916666666666664  20.416666666666668 8.333333333333334  25 8.333333333333334  C 29.583333333333332 8.333333333333334  33.333333333333336 12.916666666666668  33.333333333333336 18.75  C 33.333333333333336 24.583333333333336  29.583333333333332 29.166666666666668  25 29.166666666666668  C 20.416666666666668 29.166666666666668  16.666666666666668 24.583333333333336  16.666666666666668 18.75  Z M 38.958333333333336 37.70833333333335  C 39.79166666666667 38.54166666666667  39.79166666666667 39.79166666666667  38.75000000000001 40.625  C 35.208333333333336 43.75  30.208333333333336 45.833333333333336  25 45.833333333333336  C 19.791666666666668 45.833333333333336  14.791666666666666 43.75  11.250000000000002 40.625  C 10.416666666666668 39.79166666666667  10.208333333333334 38.54166666666667  11.04166666666667 37.708333333333336  C 13.333333333333336 35.00000000000001  16.458333333333336 33.12500000000001  19.791666666666668 32.08333333333334  C 21.458333333333336 32.91666666666667  23.125 33.33333333333334  25 33.33333333333334  C 26.875000000000004 33.33333333333334  28.541666666666664 32.91666666666668  30.208333333333336 32.08333333333334  C 33.75 33.12500000000001  36.66666666666667 35.000000000000014  38.958333333333336 37.70833333333335  Z " fill-rule="nonzero" fill="#000000" stroke="none" transform="matrix(1 0 0 1 1751 35 )" />
  </g>
</svg>