<svg width="18" height="18" viewBox="0 0 18 18" fill="none" xmlns="http://www.w3.org/2000/svg">
<path d="M9 0C14.04 0 18 3.96 18 9C18 14.04 14.04 18 9 18C3.96 18 0 14.04 0 9C0 3.96 3.96 0 9 0Z" fill="#4b4b4b"/>
<path d="M14.1389 7.55354L8.36203 12.7615C8.26478 12.8491 8.14807 12.8842 8.01192 12.8842C7.87576 12.8842 7.75906 12.8491 7.66181 12.7615L4.86091 10.2364C4.56915 9.97338 4.56915 9.55254 4.86091 9.28952L5.21102 8.97389C5.50278 8.71086 5.9696 8.71086 6.26136 8.97389L8.01192 10.552L12.7384 6.29102C13.0302 6.02799 13.497 6.02799 13.7888 6.29102L14.1389 6.60665C14.4306 6.86968 14.4306 7.29052 14.1389 7.55354Z" fill="white"/>
</svg>