<!-- Generator: Adobe Illustrator 23.0.3, SVG Export Plug-In  -->
<svg version="1.1" xmlns="http://www.w3.org/2000/svg" xmlns:xlink="http://www.w3.org/1999/xlink" x="0px" y="0px"
	width="17px" height="17px" viewBox="0 0 72.14 72.19" style="enable-background:new 0 0 72.14 72.19;"
	xml:space="preserve">
	<style type="text/css">
		.st0 {
			fill: #4b4b4b;
		}
	</style>
	<defs>
	</defs>
	<g>
		<path class="st0" d="M72.14,68.48c-0.23,0.14-0.19,0.41-0.27,0.61c-1.02,2.75-3.99,3.77-6.47,2.62c-0.6-0.28-1.09-0.72-1.56-1.19
		c-9.06-9.07-18.13-18.13-27.18-27.21c-0.48-0.48-0.7-0.49-1.18,0c-9.07,9.1-18.16,18.17-27.23,27.27C6.74,72.09,4.99,72.59,3,71.86
		c-3.03-1.11-3.97-4.93-1.86-7.38c0.2-0.23,0.42-0.44,0.63-0.66c9.07-9.07,18.13-18.14,27.21-27.19c0.41-0.41,0.42-0.59,0.01-1
		C19.84,26.51,10.71,17.38,1.58,8.24C-0.6,6.07-0.51,2.92,1.77,1.08C2.44,0.54,3.2,0.2,4.07,0.11c0.33-0.09,0.66-0.02,0.99-0.04
		c1.32-0.09,2.34,0.52,3.23,1.42c8.89,8.9,17.79,17.79,26.69,26.69c1.1,1.1,1.1,1.1,2.21-0.01c8.88-8.88,17.76-17.76,26.64-26.64
		c0.9-0.9,1.89-1.54,3.22-1.46c0.32,0,0.64,0,0.96,0c2.09,0.03,3.84,1.62,4.07,3.68c0.01,0.07,0.03,0.13,0.07,0.19
		c0,0.56,0,1.13,0,1.69c-0.18,1.21-0.83,2.14-1.69,2.99c-8.97,8.95-17.93,17.92-26.89,26.88c-0.76,0.76-0.66,0.62,0.01,1.28
		c8.98,8.98,17.95,17.96,26.94,26.93c0.87,0.87,1.56,1.8,1.63,3.07C72.14,67.35,72.14,67.92,72.14,68.48z" />
		<path class="st0"
			d="M5.22,0c0.01,0.04,0.02,0.08,0.02,0.12c-0.39,0-0.78,0-1.16,0c0-0.04,0-0.08,0.02-0.11C4.46,0,4.84,0,5.22,0z" />
		<path class="st0" d="M68.06,0c0.01,0.04,0.02,0.08,0.02,0.12c-0.39,0-0.78,0-1.16,0c0-0.04,0.01-0.08,0.02-0.12
		C67.31,0,67.68,0,68.06,0z" />
	</g>
</svg>