<?xml version="1.0" encoding="utf-8"?>
<svg version="1.1" xmlns:xlink="http://www.w3.org/1999/xlink" width="9px" height="6px" xmlns="http://www.w3.org/2000/svg">
  <g transform="matrix(1 0 0 1 -1811 -57 )">
    <path d="M 0.23588709677419356 0.6751233552631581  C 0.23588709677419356 0.7707853618421046  0.26520287298387085 0.8606496710526312  0.3131741431451614 0.9331208881578945  L 0.36114541330645195 0.9939967105263148  L 3.985641381048387 5.530694901315789  C 4.108234627016128 5.6843338815789455  4.292124495967742 5.779995888157894  4.497334929435484 5.779995888157894  C 4.7025453629032254 5.779995888157894  4.886435231854839 5.681435032894737  5.00902847782258 5.530694901315789  L 8.630859375 1.0026932565789468  L 8.692155997983873 0.9273231907894737  C 8.737462197580646 0.8548519736842105  8.764112903225806 0.7678865131578947  8.764112903225806 0.6751233552631581  C 8.764112903225806 0.4229235197368426  8.566897681451612 0.21710526315789475  8.321711189516128 0.21710526315789475  L 0.6782888104838708 0.21710526315789475  C 0.4331023185483867 0.21710526315789475  0.23588709677419356 0.422923519736842  0.23588709677419356 0.6751233552631581  Z " fill-rule="nonzero" fill="#000" stroke="none" transform="matrix(1 0 0 1 1811 57 )" />
  </g>
</svg>