<?xml version="1.0" encoding="utf-8"?>
<svg version="1.1" xmlns:xlink="http://www.w3.org/1999/xlink" width="21px" height="16px" xmlns="http://www.w3.org/2000/svg">
  <g transform="matrix(1 0 0 1 -1538 -53 )">
    <path d="M 21 3.5555555555555554  C 21 1.5999999999999999  19.424999999999997 0  17.5 0  L 3.5 0  C 1.575 0  0 1.5999999999999999  0 3.5555555555555554  L 0 12.444444444444445  C 0 14.399999999999999  1.575 16  3.5 16  L 17.5 16  C 19.424999999999997 16  21 14.399999999999999  21 12.444444444444445  L 21 3.5555555555555554  Z M 19.162499999999998 4  C 19.337500000000002 4.355555555555556  19.25 4.888888888888889  18.900000000000002 5.155555555555556  L 11.987500000000002 9.866666666666667  C 11.55 10.133333333333335  11.025 10.311111111111112  10.500000000000002 10.311111111111112  C 9.975000000000001 10.311111111111112  9.450000000000003 10.133333333333335  9.012500000000001 9.866666666666667  L 2.0999999999999996 5.155555555555556  C 1.75 4.888888888888889  1.6624999999999999 4.355555555555556  1.9250000000000003 3.9111111111111114  C 2.1875 3.5555555555555554  2.7125000000000004 3.466666666666667  3.15 3.7333333333333334  L 10.0625 8.444444444444445  C 10.325000000000001 8.622222222222222  10.762500000000001 8.622222222222222  11.025 8.444444444444445  L 17.9375 3.7333333333333334  C 18.375 3.466666666666667  18.900000000000002 3.5555555555555554  19.162499999999998 4  Z " fill-rule="nonzero" fill="#000000" stroke="none" transform="matrix(1 0 0 1 1538 53 )" />
  </g>
</svg>