<?xml version="1.0" encoding="utf-8"?>
<svg version="1.1" xmlns:xlink="http://www.w3.org/1999/xlink" width="19px" height="19px" xmlns="http://www.w3.org/2000/svg">
  <g transform="matrix(1 0 0 1 -925 -795 )">
    <path d="M 19 9.5  C 19 4.2512500000000015  14.748749999999998 0  9.5 0  C 4.25125 0  0 4.25125  0 9.5  C 0 14.748749999999998  4.25125 19  9.5 19  C 14.748749999999998 19  19 14.748749999999998  19 9.5  Z M 10.450000000000001 8.55  L 10.450000000000001 14.25  L 8.55 14.25  L 8.55 8.55  L 10.450000000000001 8.55  Z M 10.450000000000001 4.75  L 10.450000000000001 6.6499999999999995  L 8.55 6.6499999999999995  L 8.55 4.75  L 10.450000000000001 4.75  Z " fill-rule="nonzero" fill="#979797" stroke="none" transform="matrix(1 0 0 1 925 795 )" />
  </g>
</svg>