<svg xmlns="http://www.w3.org/2000/svg" viewBox="0 0 40.89 39.97"><defs><style>.cls-1,.cls-2{fill:#2e9bcc;}.cls-2{stroke:#fff;stroke-miterlimit:10;}.cls-3{fill:#fff;}</style></defs><title>8Asset 1</title><g id="Layer_2" data-name="Layer 2"><g id="Layer_1-2" data-name="Layer 1"><path class="cls-1" d="M33,10.1c-.17,0-.28-.28-.5-.28v3.29H29.74v2.73h-.55v8.21a.49.49,0,0,1,.55.44v2.3h1.49c.49,0,1.21.06,1.21.6V29.2h.44a.73.73,0,0,1,.77.66v2.73a.73.73,0,0,1-.66.77H.72A.73.73,0,0,1,0,32.65V29.91c0-.44.11-.88.55-.93h1.1V27.34c0-.6.17-.55.77-.55H3.86V24.05h.55V15.84c0-.05-.55.06-.55,0V13.11H1.11V9.82h0c-.5,0-1.1.28-1.1-.21V7.74a.72.72,0,0,1,.55-.82c1.1-.49,2.26-1,3.41-1.47C8.1,3.64,12.23,1.89,16.36.08a1.21,1.21,0,0,1,.88,0C21,1.72,24.73,3.37,28.53,5l4.51,2a.78.78,0,0,1,.55.88V9.55C33.59,10.1,33.59,10.1,33,10.1ZM20.93,26.79h3.86V24.6a.49.49,0,0,1,.38-.55h.17V15.84h-.55V13.57h-16v2.27c-.33,0-.55-.16-.55,0v7.67a.83.83,0,0,0,0,.54h.55v2.74h3.85v-6a3.46,3.46,0,0,1,2.48-3.28,6.56,6.56,0,0,1,2.92-.06,3.32,3.32,0,0,1,2.86,3.34v6ZM31.39,12V9.82H20.93c-.38,0-.55.22-.55-.32s-.05-.77.55-.77h11c.5,0,.44.11.44-.44h0a.51.51,0,0,0-.44-.38L23.19,4.13,17,1.51a.56.56,0,0,0-.44,0L15,2.16C10.69,4,6.12,5.83,1.77,7.74c-.55.22-.66-.21-.66.44v.55c0,.16.38,0,.55,0H13.22V9.82h-11v2.75h27A2,2,0,0,1,30.84,12ZM1.66,32.26H31.94c.22,0,.55.28.55,0V30.62c0-.38-.22,0-.55,0-2.42,0-4.73,0-7.15-.05H7.72c-2,.05-4,.05-6.06.05-.22,0-.55-.27-.55,0v1.64C1.11,32.65,1.27,32.26,1.66,32.26Zm1.1-4.69v2H31.39v-2ZM28.09,23V19.68h0V15.84H26.44c0,1-.06,2.8-.06,3.78,0,1.31.06,2,.06,3.34v1.09h1.65ZM5.51,15.84v8.21H7.17V15.84H5.51Zm2.21,11V25.15H5v1.64ZM5,14.75H7.72V13.11H5Zm20.93,10.4v1.64h2.75V25.15Zm0-12v1.64h2.75V13.11Zm-6,13.13c-.05-.87-.05-1.31-.05-2.19V20.77A2.07,2.07,0,0,0,18,18.58H16a1,1,0,0,0-.55,0,2.23,2.23,0,0,0-1.66,2.19c0,1.7.06,3.72.06,5.42,0,.22-.22.6,0,.6h6A2,2,0,0,0,19.88,26.24Z"/><circle class="cls-2" cx="30.39" cy="29.47" r="10"/><path class="cls-3" d="M34.65,32.41h0a.72.72,0,0,1-.5-.22.76.76,0,0,1,0-1,.72.72,0,0,1,.5-.22h0a1.3,1.3,0,0,0,.94-.4,1.4,1.4,0,0,0,.39-1,1.37,1.37,0,0,0-.39-1,1.3,1.3,0,0,0-.94-.4H31.77a1.28,1.28,0,0,0-.93.4,1.39,1.39,0,0,0-.39,1,.78.78,0,0,1-.21.52.7.7,0,0,1-1,0,.78.78,0,0,1-.21-.52,2.88,2.88,0,0,1,.81-2,2.69,2.69,0,0,1,1.93-.83h2.88a2.71,2.71,0,0,1,1.94.83,2.93,2.93,0,0,1,0,4A2.71,2.71,0,0,1,34.65,32.41Zm-4.39,0H27.44a2.6,2.6,0,0,1-1.89-.83,3,3,0,0,1,0-4,2.6,2.6,0,0,1,1.89-.83h0a.71.71,0,0,1,.49.21.77.77,0,0,1,.2.52A.75.75,0,0,1,28,28a.68.68,0,0,1-.49.22h0a1.24,1.24,0,0,0-.91.4,1.36,1.36,0,0,0-.38,1,1.39,1.39,0,0,0,.38,1,1.24,1.24,0,0,0,.91.4h2.82a1.24,1.24,0,0,0,.91-.4,1.44,1.44,0,0,0,.38-1,.75.75,0,0,1,.2-.52.68.68,0,0,1,.49-.22.66.66,0,0,1,.49.22.75.75,0,0,1,.2.52,3,3,0,0,1-.78,2A2.6,2.6,0,0,1,30.26,32.41Z"/></g></g></svg>